<svg width="40" height="40" viewBox="0 0 40 40" fill="none" xmlns="http://www.w3.org/2000/svg">
<rect width="40" height="40" rx="20" fill="#F4F4F4"/>
<path fill-rule="evenodd" clip-rule="evenodd" d="M24.6861 15.4181C24.0696 15.4181 23.5698 14.9183 23.5698 14.3018C23.5698 13.6853 24.0696 13.1855 24.6861 13.1855H27.9421C28.5452 13.139 29.1512 13.5948 29.1512 14.3008V17.6496C29.1512 18.2661 28.6514 18.7659 28.0349 18.7659C27.4184 18.7659 26.9186 18.2661 26.9186 17.6496V17.0034L22.1266 21.7878C21.6906 22.2237 20.9838 22.2237 20.5479 21.7878L17.336 18.5758L13.4563 29.1939C13.2456 29.7732 12.6051 30.0721 12.0257 29.8615C11.4464 29.6508 11.1475 29.0103 11.3581 28.4309L15.823 16.1519C16.1021 15.3843 17.084 15.1665 17.6615 15.744L21.3498 19.4323L25.347 15.4181H24.6861Z" fill="black"/>
</svg>