<svg width="40" height="40" viewBox="0 0 40 40" fill="none" xmlns="http://www.w3.org/2000/svg">
<rect width="40" height="40" rx="20" fill="#F4F4F4"/>
<path fill-rule="evenodd" clip-rule="evenodd" d="M23.9682 12.7836L24.842 13.2812C24.842 13.2812 27.4508 12.8369 27.6023 12.8234C28.3917 12.7289 29.2419 13.1426 29.639 13.8138L30.7339 15.6645C31.1327 16.3385 31.0755 17.2673 30.6141 17.8549C30.507 18.0021 28.8111 19.9841 28.8111 19.9841C28.8111 19.9841 28.8217 20.1305 28.8217 20.4783C28.8217 20.6458 28.807 20.9793 28.807 20.9793C28.807 20.9793 30.507 22.9545 30.5947 23.0758C31.0732 23.6956 31.131 24.6209 30.7339 25.292L29.639 27.1427C29.2402 27.8168 28.3872 28.2328 27.6274 28.1359C27.6211 28.1353 24.828 27.6739 24.828 27.6739L23.9682 28.1686C23.9682 28.1686 23.0559 30.596 22.9922 30.7308C22.6813 31.445 21.8891 31.9565 21.0949 31.9565H18.905C18.1074 31.9565 17.3118 31.4436 17.021 30.7597C16.944 30.5958 16.0292 28.1596 16.0292 28.1596L15.1527 27.6719C15.1527 27.6719 12.549 28.1197 12.3974 28.1332C11.6081 28.2276 10.758 27.8139 10.361 27.1427L9.26602 25.292C8.86721 24.618 8.92455 23.6891 9.38607 23.1014C9.49319 22.9543 11.1907 20.9706 11.1907 20.9706C11.1907 20.9706 11.1782 20.8261 11.1782 20.4783C11.1782 20.314 11.1924 19.987 11.1924 19.987C11.1924 19.987 9.49319 18.0022 9.40542 17.8809C8.92686 17.261 8.86892 16.3357 9.26602 15.6645L10.361 13.8138C10.7597 13.1398 11.6126 12.7237 12.3648 12.8198C12.549 12.8368 15.1784 13.2838 15.1784 13.2838L16.0418 12.7829C16.0418 12.7829 16.944 10.3608 17.0078 10.226C17.3186 9.51164 18.1108 9 18.905 9H21.0949C21.8925 9 22.6881 9.51274 22.9789 10.1965C23.0559 10.3605 23.9682 12.7836 23.9682 12.7836ZM22.0287 14.4572L21.8707 13.9414C21.641 13.1914 20.9897 11.4911 20.9203 11.332C20.8801 11.2397 19.1199 11.2398 19.0797 11.332C19.0103 11.4912 18.3592 13.1914 18.1295 13.9413L17.9715 14.4571L17.4641 14.6684C16.9846 14.868 16.5317 15.1239 16.115 15.4298L15.6735 15.7539L15.136 15.6293C14.3551 15.4483 12.5194 15.1483 12.3433 15.1273C12.2413 15.1152 11.3612 16.6028 11.423 16.683C11.5296 16.8212 12.7136 18.2223 13.2645 18.7916L13.6429 19.1826L13.5772 19.7165C13.5463 19.9677 13.5307 20.2219 13.5307 20.4783C13.5307 20.7346 13.5463 20.9888 13.5772 21.24L13.6429 21.7739L13.2645 22.1649C12.7136 22.7342 11.5296 24.1353 11.423 24.2736C11.3612 24.3537 12.2413 25.8413 12.3433 25.8292C12.5194 25.8082 14.3551 25.5082 15.136 25.3272L15.6735 25.2026L16.115 25.5267C16.5317 25.8327 16.9846 26.0885 17.4641 26.2881L17.9715 26.4994L18.1295 27.0152C18.3592 27.7651 19.0103 29.4653 19.0797 29.6245C19.1199 29.7168 20.8801 29.7168 20.9203 29.6246C20.9897 29.4654 21.641 27.7651 21.8707 27.0151L22.0287 26.4993L22.5361 26.2881C23.0156 26.0884 23.4685 25.8326 23.8851 25.5266L24.3266 25.2025L24.8642 25.3271C25.6449 25.508 27.4806 25.8081 27.6566 25.8291C27.7169 25.8363 28.6388 24.3537 28.577 24.2735C28.4704 24.1352 27.2865 22.734 26.7355 22.1646L26.3571 21.7737L26.4228 21.2398C26.4537 20.9887 26.4693 20.7345 26.4693 20.4783C26.4693 20.222 26.4537 19.9679 26.4228 19.7167L26.3571 19.1828L26.7355 18.7919C27.2865 18.2225 28.4704 16.8213 28.577 16.683C28.6388 16.6028 27.7587 15.1153 27.6566 15.1274C27.4806 15.1484 25.6449 15.4485 24.8642 15.6295L24.3266 15.7541L23.8851 15.4299C23.4685 15.124 23.0156 14.8681 22.5361 14.6685L22.0287 14.4572ZM20 23.9217C18.0511 23.9217 16.4713 22.38 16.4713 20.4783C16.4713 18.5765 18.0511 17.0348 20 17.0348C21.9488 17.0348 23.5287 18.5765 23.5287 20.4783C23.5287 22.38 21.9488 23.9217 20 23.9217ZM20 21.6261C20.6496 21.6261 21.1762 21.1122 21.1762 20.4783C21.1762 19.8443 20.6496 19.3304 20 19.3304C19.3504 19.3304 18.8237 19.8443 18.8237 20.4783C18.8237 21.1122 19.3504 21.6261 20 21.6261Z" fill="black"/>
</svg>